name D:\school\WTK\thesis\model\3dpredictsim\Results\batch_windlass\Pog_s1_tmt_bCst_d05_k500_WL20_ig24.mot
datacolumns 128
datarows 4
range 1.05080950 1.08233379
endheader
time	pelvis_tilt	pelvis_list	pelvis_rotation	pelvis_tx	pelvis_ty	pelvis_tz	hip_flexion_l	hip_adduction_l	hip_rotation_l	hip_flexion_r	hip_adduction_r	hip_rotation_r	knee_angle_l	knee_angle_r	ankle_angle_l	ankle_angle_r	subtalar_angle_l	subtalar_angle_r	tmt_angle_l	tmt_angle_r	mtp_angle_l	mtp_angle_r	lumbar_extension	lumbar_bending	lumbar_rotation	arm_flex_l	arm_add_l	arm_rot_l	arm_flex_r	arm_add_r	arm_rot_r	elbow_flex_l	elbow_flex_r	pro_sup_l	pro_sup_r	glut_med1_l/activation	glut_med2_l/activation	glut_med3_l/activation	glut_min1_l/activation	glut_min2_l/activation	glut_min3_l/activation	semimem_l/activation	semiten_l/activation	bifemlh_l/activation	bifemsh_l/activation	sar_l/activation	add_long_l/activation	add_brev_l/activation	add_mag1_l/activation	add_mag2_l/activation	add_mag3_l/activation	tfl_l/activation	pect_l/activation	grac_l/activation	glut_max1_l/activation	glut_max2_l/activation	glut_max3_l/activation	iliacus_l/activation	psoas_l/activation	quad_fem_l/activation	gem_l/activation	peri_l/activation	rect_fem_l/activation	vas_med_l/activation	vas_int_l/activation	vas_lat_l/activation	med_gas_l/activation	lat_gas_l/activation	soleus_l/activation	tib_post_l/activation	flex_dig_l/activation	flex_hal_l/activation	tib_ant_l/activation	per_brev_l/activation	per_long_l/activation	per_tert_l/activation	ext_dig_l/activation	ext_hal_l/activation	ercspn_l/activation	intobl_l/activation	extobl_l/activation	glut_med1_r/activation	glut_med2_r/activation	glut_med3_r/activation	glut_min1_r/activation	glut_min2_r/activation	glut_min3_r/activation	semimem_r/activation	semiten_r/activation	bifemlh_r/activation	bifemsh_r/activation	sar_r/activation	add_long_r/activation	add_brev_r/activation	add_mag1_r/activation	add_mag2_r/activation	add_mag3_r/activation	tfl_r/activation	pect_r/activation	grac_r/activation	glut_max1_r/activation	glut_max2_r/activation	glut_max3_r/activation	iliacus_r/activation	psoas_r/activation	quad_fem_r/activation	gem_r/activation	peri_r/activation	rect_fem_r/activation	vas_med_r/activation	vas_int_r/activation	vas_lat_r/activation	med_gas_r/activation	lat_gas_r/activation	soleus_r/activation	tib_post_r/activation	flex_dig_r/activation	flex_hal_r/activation	tib_ant_r/activation	per_brev_r/activation	per_long_r/activation	per_tert_r/activation	ext_dig_r/activation	ext_hal_r/activation	ercspn_r/activation	intobl_r/activation	extobl_r/activation	
          1.05080950	         -2.92348628	         -1.32931070	          5.45960917	          1.31351188	          0.85925425	         -0.00149930	        -17.69258583	         -1.11505708	          7.41054526	         31.19146206	          2.14534267	         -2.80538150	         -9.62690074	        -18.54878206	         -1.24627007	         -0.36472894	         11.35125376	          0.20369523	         -3.65077639	         -0.02462031	         26.75885177	          0.43009445	         -1.00802668	         -0.40301094	         -1.64836751	          3.75094639	        -13.46379414	         14.08278291	         -8.37056732	        -13.54100881	          6.34713122	         33.60782624	         18.81601546	         86.51662706	         86.51662706	          0.27084644	          0.08545551	          0.05119571	          0.29113877	          0.18394874	          0.08863587	          0.05000063	          0.05000012	          0.05000009	          0.06784149	          0.08409890	          0.10896206	          0.05000043	          0.05000033	          0.05000086	          0.05000038	          0.26055010	          0.05001757	          0.05000032	          0.05000115	          0.05000092	          0.05000071	          0.29398526	          0.51229211	          0.05000009	          0.05000016	          0.05000003	          0.18183830	          0.11233914	          0.08286617	          0.07671104	          0.27543463	          0.35667061	          0.23896225	          0.20074749	          0.18307249	          0.25510152	          0.05000000	          0.09031064	          0.15353850	          0.05000005	          0.05000001	          0.05000004	          0.05000000	          0.05000004	          0.05000004	          0.05000062	          0.05000023	          0.05000487	          0.05000022	          0.05000024	          0.05000070	          0.05875674	          0.05875675	          0.08200492	          0.05000039	          0.05000038	          0.10276482	          0.14526413	          0.15546962	          0.15860148	          0.11061097	          0.05000035	          0.05873814	          0.05875699	          0.05000100	          0.06904698	          0.12435418	          0.05637101	          0.05439509	          0.25599606	          0.05626626	          0.05005474	          0.05000004	          0.12917777	          0.13232831	          0.11059715	          0.05875675	          0.05875676	          0.05875674	          0.05000001	          0.05000060	          0.05000323	          0.43768258	          0.26853971	          0.15494309	          0.26959479	          0.56129730	          0.05000003	          0.05000015	          0.11431419	          0.11290340	
          1.06131760	         -2.91263819	         -1.42167394	          5.71366501	          1.32951595	          0.85824974	         -0.00131246	        -17.46866631	         -1.40431258	          7.17609178	         30.57835826	          2.53240768	         -2.57229564	        -11.57777556	        -18.49098997	         -2.09010133	         -0.81973025	         12.28368779	         -0.43130310	         -4.34438728	         -0.04292437	         27.76186436	          0.56884683	         -0.80842313	         -0.16532294	         -1.70824319	          3.51079746	        -13.48648391	         14.42284592	         -9.30205369	        -13.53937383	          6.15327524	         34.49452962	         18.66107487	         86.51662706	         86.51662706	          0.23048117	          0.07271976	          0.05000008	          0.24774931	          0.15653417	          0.07542614	          0.05000409	          0.05000022	          0.05000034	          0.05773085	          0.07156541	          0.19902506	          0.15261129	          0.06904794	          0.05000183	          0.14545983	          0.22171938	          0.08119141	          0.05000099	          0.05000056	          0.05000035	          0.05000031	          0.25017152	          0.44086896	          0.05000010	          0.05874880	          0.05875674	          0.15473824	          0.09559707	          0.15473244	          0.15369453	          0.23438554	          0.30351461	          0.20334878	          0.17082933	          0.15578856	          0.21708279	          0.05372752	          0.07685132	          0.13065608	          0.05000009	          0.07263875	          0.05000023	          0.05000000	          0.06904727	          0.06156739	          0.05000002	          0.05000010	          0.06938226	          0.05000007	          0.05000011	          0.05000012	          0.05000002	          0.05000007	          0.06978342	          0.05000008	          0.05001495	          0.08744951	          0.12361493	          0.32586326	          0.23629585	          0.09412677	          0.05000016	          0.05000060	          0.05000041	          0.05875659	          0.05875684	          0.12403614	          0.05000010	          0.06904701	          0.50508754	          0.09535198	          0.06271240	          0.06904713	          0.24565501	          0.23685244	          0.20429060	          0.05000001	          0.05000002	          0.05000000	          0.05000004	          0.05634625	          0.05000012	          0.55013611	          0.22851822	          0.13185134	          0.43154455	          0.58779416	          0.06011340	          0.05000000	          0.09727750	          0.09607697	
          1.07182569	         -2.89780037	         -1.52339571	          5.94421567	          1.34576202	          0.85711811	         -0.00114367	        -17.17840580	         -1.69114941	          6.92572527	         29.79200235	          2.87949233	         -2.26109847	        -13.65441681	        -18.86948138	         -3.01289983	         -1.05211059	         13.14658282	         -1.12158327	         -4.97482719	         -0.24267687	         28.38426493	          0.67017168	         -0.59071671	          0.08943596	         -1.75799377	          3.20793826	        -13.51528586	         14.71704324	        -10.23720291	        -13.54751484	          6.02629021	         35.36909766	         18.50269317	         86.51662706	         86.51662706	          0.31740836	          0.06188206	          0.05000004	          0.21082639	          0.13320530	          0.06418511	          0.05000047	          0.05000012	          0.05000012	          0.05000003	          0.06089983	          0.16942009	          0.31078311	          0.05875809	          0.05875740	          0.12378393	          0.18868554	          0.06909214	          0.05000059	          0.05000526	          0.05001181	          0.05874853	          0.21288751	          0.41833156	          0.05000033	          0.05000022	          0.05000003	          0.13167701	          0.08135010	          0.13167213	          0.13078889	          0.19945415	          0.25828065	          0.17304292	          0.14536998	          0.13257083	          0.18473013	          0.14147296	          0.16347577	          0.15970804	          0.05000028	          0.18357298	          0.13053343	          0.06781733	          0.05875689	          0.05875677	          0.28923037	          0.26872370	          0.34766878	          0.05000065	          0.05000018	          0.33810602	          0.08381926	          0.05000022	          0.09345023	          0.05000004	          0.05000020	          0.07441772	          0.22146955	          0.27729867	          0.20129457	          0.14157538	          0.05000013	          0.06904726	          0.10807499	          0.05000005	          0.05000011	          0.12107489	          0.05875672	          0.05875671	          0.42981240	          0.08114136	          0.20645787	          0.05875678	          0.21394117	          0.22309858	          0.18935787	          0.05875673	          0.05875673	          0.05875674	          0.05000007	          0.05000018	          0.05762301	          0.51671900	          0.19446128	          0.11220104	          0.36722986	          0.57016809	          0.05115447	          0.05000001	          0.09534988	          0.08175825	
          1.08233379	         -2.88139514	         -1.63150190	          6.14483089	          1.36202239	          0.85592338	         -0.00097432	        -16.77617614	         -1.96623763	          6.66948234	         28.86781027	          3.20631799	         -1.94058376	        -15.92655422	        -19.22843172	         -3.93672106	         -1.03456668	         13.92292464	         -1.85910375	         -5.40802813	         -0.45615162	         28.27951589	          0.79177020	         -0.37615701	          0.35596646	         -1.79744514	          2.88015542	        -13.54958418	         14.97992092	        -11.12205343	        -13.56359807	          5.98888368	         36.20818926	         18.30667301	         86.51662706	         86.51662706	          0.27010378	          0.05265955	          0.05000001	          0.17940639	          0.11335324	          0.05461939	          0.05010492	          0.05000033	          0.05000028	          0.05000018	          0.05182488	          0.21210649	          0.26446597	          0.05000122	          0.05000081	          0.10535751	          0.19662196	          0.05879531	          0.05000016	          0.05000029	          0.05000018	          0.05000011	          0.18116008	          0.38125629	          0.05000001	          0.05000012	          0.05000007	          0.11205268	          0.06922621	          0.11204855	          0.11129694	          0.16972873	          0.21978809	          0.14725367	          0.12370496	          0.11281336	          0.15719914	          0.20228450	          0.13911258	          0.13590618	          0.22035223	          0.23683590	          0.11578301	          0.10604010	          0.05000012	          0.05000003	          0.38355781	          0.42470319	          0.47362037	          0.23964805	          0.33929373	          0.32125314	          0.07132740	          0.10127827	          0.07952307	          0.06904672	          0.05000025	          0.06332697	          0.18846310	          0.23597185	          0.18047474	          0.15691217	          0.05000011	          0.05875699	          0.09196841	          0.26568842	          0.19524615	          0.15756254	          0.05000003	          0.05000003	          0.36575581	          0.06904866	          0.17568896	          0.05000003	          0.28361337	          0.29915973	          0.25289090	          0.05000000	          0.05000002	          0.05000000	          0.08018936	          0.05000039	          0.05000008	          0.63171882	          0.16547997	          0.09547929	          0.41488488	          0.57367202	          0.34860112	          0.06464689	          0.08113953	          0.06957350	
